<?xml version="1.0" encoding="utf-8"?>
<!-- Generator: Adobe Illustrator 23.0.1, SVG Export Plug-In . SVG Version: 6.00 Build 0)  -->
<svg version="1.1" id="Camada_1" xmlns="http://www.w3.org/2000/svg" xmlns:xlink="http://www.w3.org/1999/xlink" x="0px" y="0px"
	 viewBox="0 0 28 28" style="enable-background:new 0 0 28 28;" xml:space="preserve">
<style type="text/css">
	.st0{fill-rule:evenodd;clip-rule:evenodd;fill:#F51344;}
	.st1{fill-rule:evenodd;clip-rule:evenodd;fill:#FFFFFF;}
</style>
<title>Logo/Colored/Black</title>
<desc>Created with Sketch.</desc>
<g id="Symbols">
	<g transform="translate(-22.000000, -18.000000)">
		<g transform="translate(22.000000, 18.000000)">
			<path id="Path" class="st0" d="M14,0.1C6.3,0.1,0.1,6.3,0.1,14S6.3,27.9,14,27.9S27.9,21.7,27.9,14S21.7,0.1,14,0.1L14,0.1z"/>
			<path class="st1" d="M21.8,18.6c0,0.7-0.5,1.2-1.2,1.1c-0.6,0-1.1-0.6-1.1-1.2V16c0-0.5-0.4-0.9-0.9-0.9H16
				c-0.5,0-0.9,0.4-0.9,0.9v3.5c0,0.7-0.5,1.2-1.2,1.1c-0.6,0-1.1-0.6-1.1-1.2V16c0-0.5-0.4-0.9-0.9-0.9H9.4c-0.5,0-0.9,0.4-0.9,0.9
				v2.6c0,0.7-0.5,1.2-1.2,1.1c-0.6,0-1.1-0.6-1.1-1.2V9.4c0-0.7,0.5-1.2,1.2-1.1c0.6,0,1.1,0.6,1.1,1.2V12c0,0.5,0.4,0.9,0.9,0.9
				H12c0.5,0,0.9-0.4,0.9-0.9V8.5c0-0.7,0.5-1.2,1.2-1.1c0.6,0,1.1,0.6,1.1,1.2V12c0,0.5,0.4,0.9,0.9,0.9h2.6c0.5,0,0.9-0.4,0.9-0.9
				V9.5c0-0.6,0.5-1.2,1.1-1.2c0.7,0,1.2,0.5,1.2,1.1V18.6z"/>
		</g>
	</g>
</g>
</svg>
